<svg width="94" height="106" viewBox="0 0 94 106" fill="none" xmlns="http://www.w3.org/2000/svg">
<g opacity="0.1">
<path d="M72.1885 52.1489C72.1885 53.9183 70.6074 55.3524 68.6566 55.3524L68.6566 64.963C68.6566 75.5624 59.1511 84.1842 47.4653 84.1842C35.7795 84.1842 26.2741 75.5624 26.2741 64.963L26.2741 55.3524C24.3233 55.3524 22.7422 53.9183 22.7422 52.1489C22.7422 50.3794 24.3233 48.9453 26.2741 48.9453H33.3378C35.2886 48.9453 36.8697 50.3794 36.8697 52.1489C36.8697 53.9183 35.2886 55.3524 33.3378 55.3524L33.3378 64.963C33.3378 72.03 39.6752 77.7772 47.4653 77.7772C55.2555 77.7772 61.5929 72.03 61.5929 64.963L61.5929 55.3524C59.6421 55.3524 58.061 53.9183 58.061 52.1489C58.061 50.3794 59.6421 48.9453 61.5929 48.9453H68.6566C70.6074 48.9453 72.1885 50.3794 72.1885 52.1489Z" fill="black"/>
<path d="M89.8357 14.0319C89.461 13.0674 88.6933 12.2938 87.7116 11.8881L60.2946 0.585202C58.3885 -0.202234 56.1755 0.580179 55.2473 2.36227L45.3994 21.3085C42.0166 4.2913 34.0932 0.280024 27.4165 0.280024C16.7826 0.280024 9.86833 11.2124 8.19067 30.4211H3.91624C2.80128 30.4211 1.73986 30.877 0.998294 31.6757C0.25412 32.4745 -0.0996893 33.5395 0.0243397 34.6044L6.69449 92.3661C7.57705 100.008 14.2707 105.774 22.266 105.774H71.734C79.7306 105.774 86.423 100.008 87.3029 92.3661L93.9757 34.6044C94.0997 33.5395 93.7459 32.4745 93.0017 31.6757C92.2602 30.877 91.1987 30.4211 90.0838 30.4211H82.9449L89.6934 16.9895C90.1582 16.0639 90.2104 14.9939 89.8357 14.0319ZM60.6014 8.91042L80.8586 17.2608L74.2446 30.4211H49.4205L60.6014 8.91042ZM27.4165 7.8153C33.3333 7.8153 37.4889 16.182 38.7893 30.4211H16.0502C17.3727 16.5575 21.6903 7.8153 27.4165 7.8153ZM85.7075 37.9564L79.5165 91.5347C79.0778 95.3576 75.7303 98.2386 71.734 98.2386H22.266C18.2684 98.2386 14.9222 95.3576 14.4809 91.5347L8.29251 37.9564C32.7288 37.9564 55.071 37.9564 85.7075 37.9564Z" fill="black"/>
</g>
</svg>
