<svg width="11" height="17" viewBox="0 0 11 17" fill="none" xmlns="http://www.w3.org/2000/svg">
<mask id="mask0" mask-type="alpha" maskUnits="userSpaceOnUse" x="0" y="0" width="11" height="17">
<rect y="0.607422" width="10.2866" height="15.4038" fill="#FF9C20"/>
</mask>
<g mask="url(#mask0)">
<path d="M15.1112 7.54321C15.2524 7.3987 15.3522 7.21602 15.3993 7.01568C15.4464 6.81535 15.439 6.60529 15.3779 6.4091C15.3168 6.21291 15.2044 6.03835 15.0534 5.90503C14.9024 5.7717 14.7187 5.68489 14.523 5.65434L10.7543 5.08296C10.6688 5.07032 10.5876 5.03619 10.5176 4.98351C10.4476 4.93084 10.3909 4.86121 10.3525 4.78063L8.66775 1.222C8.57945 1.03737 8.44352 0.882057 8.27521 0.773495C8.1069 0.664933 7.91288 0.607422 7.71494 0.607422C7.517 0.607422 7.32298 0.664933 7.15467 0.773495C6.98636 0.882057 6.85043 1.03737 6.76213 1.222L5.07476 4.78063C5.03658 4.86086 4.98032 4.93027 4.9108 4.98292C4.84128 5.03557 4.76056 5.06989 4.67554 5.08296L0.906898 5.65434C0.711161 5.68489 0.527473 5.7717 0.376457 5.90503C0.225442 6.03835 0.11308 6.21291 0.0519867 6.4091C-0.00910626 6.60529 -0.0165106 6.81535 0.0306051 7.01568C0.0777209 7.21602 0.177491 7.3987 0.318713 7.54321L3.04672 10.3169C3.10644 10.3803 3.15067 10.4578 3.17568 10.5427C3.20069 10.6277 3.20575 10.7176 3.19044 10.8051L2.55435 14.7159C2.5213 14.9197 2.54352 15.129 2.61849 15.3203C2.69346 15.5116 2.81821 15.6773 2.97868 15.7987C3.13915 15.9201 3.32896 15.9924 3.52673 16.0074C3.72449 16.0224 3.92235 15.9795 4.098 15.8837L7.46742 14.0364C7.54377 13.9946 7.62871 13.9728 7.71494 13.9728C7.80117 13.9728 7.88611 13.9946 7.96246 14.0364L11.3319 15.8837C11.4853 15.9678 11.6562 16.0116 11.8296 16.0113C11.9842 16.0107 12.1368 15.9751 12.2768 15.9069C12.4169 15.8386 12.541 15.7394 12.6405 15.6162C12.7401 15.4929 12.8127 15.3485 12.8532 15.193C12.8938 15.0376 12.9014 14.8748 12.8755 14.7159L12.2394 10.8051C12.2247 10.7165 12.2308 10.6256 12.2572 10.5401C12.2836 10.4546 12.3296 10.377 12.3911 10.3141L15.1112 7.54321Z" fill="#FFAD26"/>
<path d="M15.1112 7.54321C15.2524 7.3987 15.3522 7.21602 15.3993 7.01568C15.4464 6.81535 15.439 6.60529 15.3779 6.4091C15.3168 6.21291 15.2044 6.03835 15.0534 5.90503C14.9024 5.7717 14.7187 5.68489 14.523 5.65434L10.7543 5.08296C10.6688 5.07032 10.5876 5.03619 10.5176 4.98351C10.4476 4.93084 10.3909 4.86121 10.3525 4.78063L8.66775 1.222C8.57945 1.03737 8.44352 0.882057 8.27521 0.773495C8.1069 0.664933 7.91288 0.607422 7.71494 0.607422C7.517 0.607422 7.32298 0.664933 7.15467 0.773495C6.98636 0.882057 6.85043 1.03737 6.76213 1.222L5.07476 4.78063C5.03658 4.86086 4.98032 4.93027 4.9108 4.98292C4.84128 5.03557 4.76056 5.06989 4.67554 5.08296L0.906898 5.65434C0.711161 5.68489 0.527473 5.7717 0.376457 5.90503C0.225442 6.03835 0.11308 6.21291 0.0519867 6.4091C-0.00910626 6.60529 -0.0165106 6.81535 0.0306051 7.01568C0.0777209 7.21602 0.177491 7.3987 0.318713 7.54321L3.04672 10.3169C3.10644 10.3803 3.15067 10.4578 3.17568 10.5427C3.20069 10.6277 3.20575 10.7176 3.19044 10.8051L2.55435 14.7159C2.5213 14.9197 2.54352 15.129 2.61849 15.3203C2.69346 15.5116 2.81821 15.6773 2.97868 15.7987C3.13915 15.9201 3.32896 15.9924 3.52673 16.0074C3.72449 16.0224 3.92235 15.9795 4.098 15.8837L7.46742 14.0364C7.54377 13.9946 7.62871 13.9728 7.71494 13.9728C7.80117 13.9728 7.88611 13.9946 7.96246 14.0364L11.3319 15.8837C11.4853 15.9678 11.6562 16.0116 11.8296 16.0113C11.9842 16.0107 12.1368 15.9751 12.2768 15.9069C12.4169 15.8386 12.541 15.7394 12.6405 15.6162C12.7401 15.4929 12.8127 15.3485 12.8532 15.193C12.8938 15.0376 12.9014 14.8748 12.8755 14.7159L12.2394 10.8051C12.2247 10.7165 12.2308 10.6256 12.2572 10.5401C12.2836 10.4546 12.3296 10.377 12.3911 10.3141L15.1112 7.54321Z" fill="#FF9C20"/>
</g>
</svg>
