<svg width="36" height="36" viewBox="0 0 36 36" fill="none" xmlns="http://www.w3.org/2000/svg">
  <rect x="1.11111" y="1.11111" width="33.7778" height="33.7778" rx="10.8889" fill="#FFA82E" stroke="white" stroke-width="1.77778"/>
  <g clip-path="url(#clip0_6999_12439)">
    <path d="M18.0036 23.2595C18.6842 23.2595 19.2507 22.7381 19.308 22.0599L20.1928 11.4921C20.2443 10.8792 20.0365 10.2733 19.6205 9.82081C19.205 9.36887 18.6182 9.11133 18.0036 9.11133C17.389 9.11133 16.8022 9.36887 16.3867 9.82081C15.9706 10.2733 15.7629 10.8792 15.8144 11.4921L16.6992 22.0599C16.7565 22.7381 17.323 23.2595 18.0036 23.2595Z" fill="white"/>
    <path d="M18.0041 24.0391C17.2164 24.0391 16.5781 24.6773 16.5781 25.465C16.5781 26.2526 17.2164 26.8909 18.0041 26.8909C18.7917 26.8909 19.43 26.2526 19.43 25.465C19.43 24.6773 18.7917 24.0391 18.0041 24.0391Z" fill="white"/>
  </g>
  <defs>
    <clipPath id="clip0_6999_12439">
      <rect x="9.11133" y="9.11133" width="17.7778" height="17.7778" rx="8.88889" fill="white"/>
    </clipPath>
  </defs>
</svg>
